<?xml version="1.0" encoding="utf-8"?>
<!-- Generator: Adobe Illustrator 23.0.2, SVG Export Plug-In . SVG Version: 6.00 Build 0)  -->
<svg version="1.1" id="Layer_1" xmlns="http://www.w3.org/2000/svg" xmlns:xlink="http://www.w3.org/1999/xlink" x="0px" y="0px"
	 viewBox="0 0 224.2 122" style="enable-background:new 0 0 224.2 122;" xml:space="preserve">
<path style="fill:#FFFFFF;stroke:#000000;stroke-width:0.8341;stroke-miterlimit:10;" d="M223.8,88.5c0,18.3-39.4,33-88.1,33
	c-24.5,0-46.9,0.6-62.9-5.4c-7.3,4-15.9,1.9-25.2,1.9c-26.1,0-47.2-18.1-47.2-40.4c0-21.6,19.8-39.2,44.6-40.4
	C49.6,16.2,67.9,0.4,89.7,0.4c19.4,0,36,12.5,42.7,30.1c5.2-2.5,11-3.9,17.1-3.9c20.4,0,37.3,15.5,40.2,35.7
	C210.4,68.5,223.8,77.9,223.8,88.5z"/>
</svg>
