<?xml version="1.0" encoding="utf-8"?>
<!-- Generator: Adobe Illustrator 23.0.2, SVG Export Plug-In . SVG Version: 6.00 Build 0)  -->
<svg version="1.1" id="Layer_1" xmlns="http://www.w3.org/2000/svg" xmlns:xlink="http://www.w3.org/1999/xlink" x="0px" y="0px"
	 viewBox="0 0 190.8 190.9" style="enable-background:new 0 0 190.8 190.9;" xml:space="preserve">
<path style="fill:#EAAF50;" d="M151.1,172.1l-32.3-26.3c-1.3-1.1-3.3-0.2-3.4,1.5l-2.1,41.6c-0.1,2.2-3.1,2.7-4,0.7l-16.4-38.3
	c-0.7-1.5-2.8-1.7-3.7-0.2L68,186.9c-1.1,1.9-4,1-3.8-1.2l3.2-41.5c0.1-1.7-1.7-2.8-3.1-1.9l-35.5,21.9c-1.9,1.1-4-1-2.8-2.9
	L48.2,126c0.9-1.4-0.2-3.3-1.9-3.2l-41.6,2.9c-2.2,0.2-3.1-2.7-1.2-3.8l36-20.9c1.5-0.8,1.3-3-0.2-3.7L1.2,80.6
	c-2-0.9-1.4-3.9,0.7-3.9l41.6-1.8c1.7-0.1,2.6-2,1.5-3.3l-26-32.6c-1.4-1.7,0.5-4.1,2.5-3.1l37.7,17.8c1.5,0.7,3.2-0.6,2.9-2.3
	l-7.9-40.9C53.9,8.2,56.7,7,58,8.8L83.1,42c1,1.3,3.1,1,3.6-0.6l12-39.9c0.6-2.1,3.7-1.9,4,0.3l6.8,41.1c0.3,1.7,2.3,2.3,3.5,1.1
	l29.2-29.7c1.5-1.6,4.1,0,3.4,2.1l-13.1,39.5c-0.5,1.6,1,3.1,2.6,2.6l39.7-12.7c2.1-0.7,3.6,1.9,2.1,3.4l-30,28.9
	c-1.2,1.2-0.6,3.2,1.1,3.5l41,7.1c2.2,0.4,2.3,3.4,0.2,4l-40,11.7c-1.6,0.5-2,2.6-0.7,3.6l33,25.4c1.7,1.3,0.5,4.1-1.7,3.7
	l-40.8-8.2c-1.7-0.3-3,1.4-2.3,2.9l17.4,37.8C155.2,171.6,152.8,173.4,151.1,172.1z"/>
</svg>
